<svg width="117" height="117" viewBox="0 0 117 117" fill="none" xmlns="http://www.w3.org/2000/svg">
<path d="M98.5968 67.6129H18.4032C16.3984 67.6129 14.7581 65.9726 14.7581 63.9677V5.64516C14.7581 3.64032 16.3984 2 18.4032 2H98.5968C100.602 2 102.242 3.64032 102.242 5.64516V63.9677C102.242 65.9726 100.602 67.6129 98.5968 67.6129Z" stroke="#464646" stroke-width="2.8" stroke-miterlimit="10" stroke-linecap="round" stroke-linejoin="round"/>
<path d="M23.871 115H5.64516C3.64032 115 2 113.36 2 111.355V93.129C2 91.1242 3.64032 89.4839 5.64516 89.4839H23.871C25.8758 89.4839 27.5161 91.1242 27.5161 93.129V111.355C27.5161 113.36 25.8758 115 23.871 115Z" stroke="#464646" stroke-width="2.8" stroke-miterlimit="10" stroke-linecap="round" stroke-linejoin="round"/>
<path d="M67.6129 115H49.3871C47.3823 115 45.7419 113.36 45.7419 111.355V93.129C45.7419 91.1242 47.3823 89.4839 49.3871 89.4839H67.6129C69.6177 89.4839 71.2581 91.1242 71.2581 93.129V111.355C71.2581 113.36 69.6177 115 67.6129 115Z" stroke="#464646" stroke-width="2.8" stroke-miterlimit="10" stroke-linecap="round" stroke-linejoin="round"/>
<path d="M111.355 115H93.129C91.1242 115 89.4839 113.36 89.4839 111.355V93.129C89.4839 91.1242 91.1242 89.4839 93.129 89.4839H111.355C113.36 89.4839 115 91.1242 115 93.129V111.355C115 113.36 113.36 115 111.355 115Z" stroke="#464646" stroke-width="2.8" stroke-miterlimit="10" stroke-linecap="round" stroke-linejoin="round"/>
<path d="M14.7581 89.4839V82.1935C14.7581 80.1887 16.3984 78.5484 18.4032 78.5484H98.5968C100.602 78.5484 102.242 80.1887 102.242 82.1935V89.4839" stroke="#464646" stroke-width="2.8" stroke-miterlimit="10" stroke-linecap="round" stroke-linejoin="round"/>
<path d="M58.5 67.6129V89.4839" stroke="#464646" stroke-width="2.8" stroke-miterlimit="10" stroke-linecap="round" stroke-linejoin="round"/>
<path d="M27.5161 102.242H45.7419" stroke="#464646" stroke-width="2.8" stroke-miterlimit="10" stroke-linecap="round" stroke-linejoin="round"/>
<path d="M71.2581 102.242H89.4839" stroke="#464646" stroke-width="2.8" stroke-miterlimit="10" stroke-linecap="round" stroke-linejoin="round"/>
<path d="M29.3387 60.3226C29.3387 60.3226 29.8855 51.0274 36.629 47.5645L49.3871 42.0968C49.3871 42.0968 53.0322 43.9194 58.5 43.9194C63.9677 43.9194 67.6129 42.0968 67.6129 42.0968L80.3709 47.5645C87.1145 51.0274 87.6613 60.3226 87.6613 60.3226" stroke="#7DAB3C" stroke-width="2.8" stroke-miterlimit="10" stroke-linecap="round" stroke-linejoin="round"/>
<path d="M63.9678 34.8065C69.4355 31.1613 69.4355 28.7919 69.9823 23.5065C70.3468 20.5903 70.5291 17.492 69.071 14.9403C67.7952 12.571 65.4258 10.9306 62.8742 10.0194C61.4161 9.47258 59.9581 9.29033 58.5 9.29033C57.042 9.29033 55.4016 9.47258 54.1258 10.0194C51.5742 10.9306 49.2049 12.571 47.929 14.9403C46.471 17.492 46.6532 20.5903 47.0178 23.5065C47.5645 28.7919 47.5645 31.1613 53.0323 34.8065" stroke="#7DAB3C" stroke-width="2.8" stroke-miterlimit="10" stroke-linecap="round" stroke-linejoin="round"/>
<path d="M62.1452 43.9194C63.9678 45.7419 63.2387 51.0274 62.1452 53.0323C62.1452 53.0323 63.9678 57.2242 63.9678 60.3226" stroke="#7DAB3C" stroke-width="2.8" stroke-miterlimit="10" stroke-linecap="round" stroke-linejoin="round"/>
<path d="M53.0323 60.3226C53.0323 57.2242 54.8548 53.0323 54.8548 53.0323C53.7613 51.0274 53.0323 45.7419 54.8548 43.9194" stroke="#7DAB3C" stroke-width="2.8" stroke-miterlimit="10" stroke-linecap="round" stroke-linejoin="round"/>
</svg>
