<svg width="117" height="117" viewBox="0 0 117 117" fill="none" xmlns="http://www.w3.org/2000/svg">
<path d="M34.8065 105.887C34.8065 105.887 31.1614 107.71 25.6936 107.71C20.2259 107.71 16.5807 105.887 16.5807 105.887L7.46776 109.533C5.09839 110.626 2.91129 113.36 2 115" stroke="#04383B" stroke-width="2.8" stroke-miterlimit="10" stroke-linecap="round" stroke-linejoin="round"/>
<path d="M31.1614 100.42C36.2647 96.9568 35.7179 94.952 36.4469 89.8488C36.8114 87.1149 36.8114 84.381 35.5356 81.8293C34.4421 79.6422 32.255 78.0019 29.8856 77.2729C28.6098 76.9084 27.1517 76.5439 25.6937 76.5439C24.2356 76.5439 22.7775 76.7261 21.5017 77.2729C19.1324 78.0019 16.9453 79.6422 15.8517 81.8293C14.5759 84.1987 14.7582 87.1149 14.9404 89.8488C15.4872 94.7697 15.1227 96.9568 20.2259 100.42" stroke="#04383B" stroke-width="2.8" stroke-miterlimit="10" stroke-linecap="round" stroke-linejoin="round"/>
<path d="M82.194 115C81.2827 113.36 79.0956 110.626 76.7262 109.533L67.6133 105.887C67.6133 105.887 63.9681 107.71 58.5004 107.71C53.0326 107.71 49.3875 105.887 49.3875 105.887L40.2745 109.533C37.9052 110.626 35.7181 113.36 34.8068 115" stroke="#04383B" stroke-width="2.8" stroke-miterlimit="10" stroke-linecap="round" stroke-linejoin="round"/>
<path d="M63.9682 100.42C69.0714 96.9568 68.5246 94.952 69.2537 89.8488C69.6182 87.1149 69.6182 84.381 68.3424 81.8293C67.2488 79.6422 65.0617 78.0019 62.6924 77.2729C61.4165 76.9084 59.9585 76.5439 58.5004 76.5439C57.0423 76.5439 55.5843 76.7261 54.3085 77.2729C51.9391 78.0019 49.752 79.6422 48.6585 81.8293C47.3826 84.1987 47.5649 87.1149 47.7472 89.8488C48.2939 94.7697 47.9294 96.9568 53.0327 100.42" stroke="#04383B" stroke-width="2.8" stroke-miterlimit="10" stroke-linecap="round" stroke-linejoin="round"/>
<path d="M115 115C114.089 113.36 111.902 110.626 109.532 109.533L100.419 105.887C100.419 105.887 96.7742 107.71 91.3064 107.71C85.8387 107.71 82.1935 105.887 82.1935 105.887" stroke="#04383B" stroke-width="2.8" stroke-miterlimit="10" stroke-linecap="round" stroke-linejoin="round"/>
<path d="M96.7742 100.42C101.877 96.9568 101.331 94.952 102.06 89.8488C102.424 87.1149 102.424 84.381 101.148 81.8293C100.055 79.6422 97.8677 78.0019 95.4984 77.2729C94.2225 76.9084 92.7645 76.5439 91.3064 76.5439C89.8483 76.5439 88.3903 76.7261 87.1145 77.2729C84.7451 78.0019 82.558 79.6422 81.4645 81.8293C80.1886 84.1987 80.3709 87.1149 80.5532 89.8488C81.0999 94.7697 80.7354 96.9568 85.8387 100.42" stroke="#04383B" stroke-width="2.8" stroke-miterlimit="10" stroke-linecap="round" stroke-linejoin="round"/>
<path d="M107.71 58.5001H96.7742L91.3064 69.4356L80.3709 58.5001H67.6128L58.4999 69.4356L49.387 58.5001H36.6289L25.6934 69.4356L20.2257 58.5001H9.29019C7.28534 58.5001 5.64502 56.8598 5.64502 54.855V5.64517C5.64502 3.64033 7.28534 2 9.29019 2H107.71C109.715 2 111.355 3.64033 111.355 5.64517V54.855C111.355 56.8598 109.715 58.5001 107.71 58.5001Z" stroke="#04383B" stroke-width="2.8" stroke-miterlimit="10" stroke-linecap="round" stroke-linejoin="round"/>
<path d="M23.8711 47.5647V42.0969C23.8711 41.0034 24.6002 40.2743 25.6937 40.2743H26.7873C27.5163 40.2743 28.2453 39.9098 28.4276 39.1808L31.3437 32.255C31.7082 31.5259 31.526 30.7969 30.9792 30.2501L30.2502 29.5211C29.5211 28.7921 29.5211 27.6985 30.2502 26.9695L37.905 19.3146C38.634 18.5856 39.7276 18.5856 40.4566 19.3146L41.1857 20.0436C41.7324 20.5904 42.4615 20.7727 43.1905 20.4082L50.1163 17.492C50.8454 17.1275 51.2099 16.5808 51.2099 15.8517V14.7582C51.2099 13.6646 51.9389 12.9356 53.0325 12.9356H63.968C65.0615 12.9356 65.7905 13.6646 65.7905 14.7582V15.8517C65.7905 16.5808 66.1551 17.3098 66.8841 17.492L73.8099 20.4082C74.539 20.7727 75.268 20.5904 75.8148 20.0436L76.5438 19.3146C77.2728 18.5856 78.3664 18.5856 79.0954 19.3146L86.7503 26.9695C87.4793 27.6985 87.4793 28.7921 86.7503 29.5211L86.0212 30.2501C85.4744 30.7969 85.2922 31.5259 85.6567 32.255L88.5728 39.1808C88.9374 39.9098 89.4841 40.2743 90.2132 40.2743H91.3067C92.4003 40.2743 93.1293 41.0034 93.1293 42.0969V47.5647" stroke="#7DAB3C" stroke-width="2.8" stroke-miterlimit="10" stroke-linecap="square" stroke-linejoin="round"/>
<path d="M76.7257 47.5644C76.7257 37.5402 68.5241 29.3386 58.4999 29.3386C48.4757 29.3386 40.2741 37.5402 40.2741 47.5644" stroke="#7DAB3C" stroke-width="2.8" stroke-miterlimit="10" stroke-linecap="square" stroke-linejoin="round"/>
</svg>
